<?xml version="1.0" standalone="no"?><!DOCTYPE svg PUBLIC "-//W3C//DTD SVG 1.1//EN" "http://www.w3.org/Graphics/SVG/1.1/DTD/svg11.dtd"><svg t="1683703768915" class="icon" viewBox="0 0 1024 1024" version="1.1" xmlns="http://www.w3.org/2000/svg" p-id="2039" xmlns:xlink="http://www.w3.org/1999/xlink" width="16" height="16"><path d="M133.12 247.222857c-39.497143 0-43.885714-16.091429-10.24-36.571428l317.44-190.171429C473.965714 0 516.388571 11.702857 533.942857 46.811429l74.605714 137.508571c19.017143 33.645714 1.462857 61.44-36.571428 61.44h-438.857143z" fill="#F15A4A" p-id="2040"></path><path d="M548.571429 35.108571C529.554286 1.462857 539.794286-10.24 573.44 10.24l302.811429 184.32c33.645714 20.48 45.348571 64.365714 26.331428 98.011429l-67.291428 124.342857c-19.017143 33.645714-49.737143 35.108571-68.754286 0L548.571429 35.108571z" fill="#A472C2" p-id="2041"></path><path d="M924.525714 315.977143c19.017143-33.645714 33.645714-30.72 33.645715 8.777143v364.251428c0 39.497143-32.182857 70.217143-70.217143 70.217143h-136.045715c-38.034286 0-55.588571-27.794286-36.571428-61.44l209.188571-381.805714z" fill="#418BD1" p-id="2042"></path><path d="M893.805714 776.777143c39.497143 0 43.885714 16.091429 10.24 36.571428L593.92 1002.057143c-33.645714 20.48-76.068571 8.777143-95.085714-24.868572l-80.457143-140.434285c-19.017143-33.645714-4.388571-61.44 35.108571-61.44h440.32z" fill="#29AB91" p-id="2043"></path><path d="M475.428571 987.428571c19.017143 33.645714 7.314286 45.348571-24.868571 26.331429L147.748571 839.68c-33.645714-19.017143-45.348571-61.44-24.868571-95.085714l70.217143-121.417143c19.017143-33.645714 51.2-33.645714 70.217143 0L475.428571 987.428571z" fill="#EDD03D" p-id="2044"></path><path d="M100.937143 702.171429C81.92 735.817143 65.828571 731.428571 65.828571 691.931429V334.994286c0-39.497143 32.182857-70.217143 70.217143-70.217143h153.6c39.497143 0 54.125714 27.794286 33.645715 59.977143L100.937143 702.171429z" fill="#F39826" p-id="2045"></path></svg>